PathFileType	4	(X/Y/Z)	./resultDataOpenSim/trcMotMarkerGrf/sub09/qtm-03-01.trc
DataRate	CameraRate	NumFrames	NumMarkers	Units	OrigDataRate	OrigDataStartFrame	OrigNumFrames
250.000000	250.000000	11	24	m	250.000000	120	477
Frame#	Time	L.Toe.Tip			R.Toe.Tip			L.Ankle.Lat			R.Ankle.Lat			L.Ankle.Med			R.Ankle.Med			L.Heel			R.Heel			L.Knee.Lat			R.Knee.Lat			L.Knee.Med			R.Knee.Med			L.Thigh.Upper			R.Thigh.Upper			L.ASIS			R.ASIS			V.Sacral			L.Acromium			R.Acromium			C7			L.Elbow			R.Elbow			L.Wrist.Lat			R.Wrist.Lat
		X1	Y1	Z1	X2	Y2	Z2	X3	Y3	Z3	X4	Y4	Z4	X5	Y5	Z5	X6	Y6	Z6	X7	Y7	Z7	X8	Y8	Z8	X9	Y9	Z9	X10	Y10	Z10	X11	Y11	Z11	X12	Y12	Z12	X13	Y13	Z13	X14	Y14	Z14	X15	Y15	Z15	X16	Y16	Z16	X17	Y17	Z17	X18	Y18	Z18	X19	Y19	Z19	X20	Y20	Z20	X21	Y21	Z21	X22	Y22	Z22	X23	Y23	Z23	X24	Y24	Z24

120	0.476	-0.22642519	0.090305753	-0.021736577	-0.66496901	0.040021817	0.081277557	-0.37477826	0.09695465	-0.067848185	-0.81026617	0.05627509	0.10882476	-0.36098558	0.11701805	0.028270385	-0.79877395	0.09155784	0.016558556	-0.43712186	0.043990284	-0.02439912	-0.8792921	0.034536257	0.058947251	-0.39938791	0.51553343	-0.094840863	-0.65431635	0.48764914	0.16509953	-0.4097294	0.50905408	0.029908151	-0.67400309	0.48011517	0.037800179	-0.60017374	0.88108602	-0.15120509	-0.65317066	0.89645504	0.22107474	-0.53740478	0.96848622	-0.086132156	-0.547713	0.97621711	0.15309881	-0.708378	1.0277728	0.019947219	-0.53359989	1.4200887	-0.14056088	-0.55643144	1.4331635	0.18802817	-0.60971857	1.4789864	0.022418283	-0.69266023	1.0881372	-0.19709709	-0.66819993	1.0746998	0.28214703	-0.57047495	0.85511657	-0.23008957	-0.42757804	0.93065812	0.25813567
121	0.48	-0.20904346	0.092584712	-0.019869994	-0.66492203	0.039953799	0.08131255	-0.35713882	0.095686659	-0.067316175	-0.81057248	0.056926451	0.1088407	-0.3445977	0.11643645	0.028843869	-0.79853983	0.091532577	0.016442506	-0.41839594	0.041277046	-0.024422511	-0.87924495	0.03470905	0.058804167	-0.39329614	0.51330049	-0.095456889	-0.65163825	0.48675154	0.16510482	-0.40427341	0.50668951	0.029130438	-0.67117884	0.47946418	0.037956355	-0.59418226	0.87936355	-0.15109768	-0.64753658	0.89551399	0.22127849	-0.53087691	0.9669369	-0.085863832	-0.54151281	0.97516078	0.15336524	-0.70206691	1.0263115	0.019999936	-0.52799798	1.4187852	-0.14062505	-0.55069231	1.4320126	0.18796392	-0.60410909	1.4776462	0.02233023	-0.68716808	1.0870436	-0.19732988	-0.66163362	1.0732513	0.28229673	-0.56598577	0.8537177	-0.23089111	-0.42050431	0.93035017	0.2577796
122	0.484	-0.19206431	0.095072547	-0.017978423	-0.6648746	0.039945092	0.081358319	-0.33986478	0.094630915	-0.066742527	-0.81113646	0.058060244	0.10897346	-0.32839025	0.11616018	0.029432952	-0.79829204	0.091507018	0.016307585	-0.39996374	0.038811499	-0.024518604	-0.87921286	0.034884624	0.058640734	-0.38735006	0.51096549	-0.096075538	-0.64896528	0.48584519	0.16513989	-0.39895014	0.5041124	0.028353815	-0.6684517	0.47872311	0.038076588	-0.58820465	0.87757427	-0.15097567	-0.64186881	0.89454335	0.22149581	-0.52433013	0.96534451	-0.085580392	-0.53527724	0.97407275	0.15363557	-0.69570186	1.0247526	0.020036334	-0.52239167	1.4174246	-0.14069039	-0.54491677	1.4307981	0.18789876	-0.59848539	1.4762571	0.022240388	-0.68161969	1.0858554	-0.19748389	-0.65506275	1.0717499	0.28243238	-0.56145116	0.85222787	-0.23169038	-0.41342209	0.92993065	0.25738166
123	0.488	-0.17551436	0.097737865	-0.016153061	-0.66482738	0.039972813	0.081403252	-0.32302073	0.093758837	-0.066169862	-0.81161726	0.059116385	0.10914051	-0.31246515	0.11615425	0.029967156	-0.79802921	0.091480474	0.016157498	-0.38190763	0.036614098	-0.024623955	-0.87919428	0.035057143	0.05846177	-0.38143857	0.50856579	-0.096746656	-0.64622557	0.48496679	0.16523681	-0.39367824	0.50133195	0.027602092	-0.66575367	0.47796449	0.038164715	-0.58212528	0.87573755	-0.15081388	-0.63616789	0.89355024	0.22172013	-0.51776978	0.9637156	-0.085287426	-0.52901272	0.97294934	0.15390592	-0.68931272	1.0230845	0.020049568	-0.51679187	1.4160173	-0.14078206	-0.53912477	1.429517	0.18783302	-0.59283901	1.4748182	0.022149636	-0.67605704	1.0845739	-0.19750917	-0.64848673	1.0701955	0.28255806	-0.55691104	0.85064076	-0.2325137	-0.4063284	0.92939307	0.2569333
124	0.492	-0.1594073	0.10053129	-0.014435014	-0.66478821	0.03996651	0.081432207	-0.30660068	0.093052218	-0.065609925	-0.81167382	0.05948003	0.10916563	-0.29695898	0.1162989	0.030415029	-0.79775564	0.091455295	0.016003066	-0.36430454	0.034702442	-0.024684222	-0.87918499	0.035226829	0.058269744	-0.37548729	0.50611145	-0.097478073	-0.64341298	0.48411497	0.16539645	-0.38836762	0.49838107	0.026903363	-0.66296596	0.47724803	0.038232458	-0.57589298	0.87386556	-0.15058744	-0.63041298	0.89251072	0.22193468	-0.51118872	0.96205361	-0.084997081	-0.5227165	0.97178657	0.15416949	-0.68293869	1.0213123	0.020035895	-0.5111966	1.4145687	-0.14091772	-0.53334266	1.4281771	0.18776196	-0.58716929	1.4733366	0.022056068	-0.67056327	1.0832274	-0.19746333	-0.64189617	1.0685846	0.28267028	-0.55236825	0.84897152	-0.23337281	-0.39925027	0.92874427	0.25645304
125	0.496	-0.14373707	0.10339366	-0.012817103	-0.66476461	0.03987158	0.081441604	-0.29058035	0.092509574	-0.065072361	-0.81143418	0.059287637	0.10891974	-0.28190781	0.11648868	0.030817752	-0.79747685	0.091439837	0.01585777	-0.34716451	0.033055299	-0.024651276	-0.87918091	0.035397373	0.058065208	-0.36948493	0.50360295	-0.09822553	-0.64060532	0.48322994	0.16556616	-0.38295769	0.49530885	0.026281904	-0.66006201	0.47656845	0.038281962	-0.5695135	0.87196339	-0.15027612	-0.62459306	0.89140276	0.22213299	-0.50457765	0.96036684	-0.084720294	-0.51637188	0.97058001	0.15442214	-0.6766035	1.0194391	0.020002491	-0.50558659	1.413068	-0.14108618	-0.5275667	1.4267827	0.18767954	-0.58148218	1.4718108	0.02195428	-0.66515827	1.0818486	-0.19748317	-0.63527958	1.0669137	0.28276291	-0.54779827	0.84724299	-0.23425611	-0.39220525	0.9279922	0.25596208
126	0.5	-0.12849448	0.1062734	-0.011296282	-0.66475297	0.039706676	0.08144209	-0.27495532	0.092135463	-0.064588693	-0.81126761	0.0591334	0.10847214	-0.26723677	0.11670663	0.031219981	-0.79719591	0.091444229	0.015729018	-0.3304367	0.031616261	-0.02449705	-0.87917686	0.035577434	0.057850631	-0.36344584	0.50105422	-0.098926285	-0.637868	0.48226301	0.16569186	-0.3774275	0.49217423	0.025748258	-0.65712991	0.47588962	0.038310328	-0.56301816	0.87002775	-0.14989166	-0.61871656	0.8902271	0.22231909	-0.49793142	0.95866453	-0.084463742	-0.50996951	0.96932848	0.154664	-0.67030659	1.0174446	0.019947081	-0.49994223	1.411497	-0.1412576	-0.52176544	1.4253326	0.18758266	-0.57577973	1.4702278	0.021840093	-0.65967575	1.0804308	-0.19768378	-0.62864312	1.0651861	0.28283899	-0.54316205	0.84547546	-0.23514095	-0.38519269	0.92713489	0.25547425
127	0.504	-0.11369695	0.10912795	-0.0098981714	-0.66474108	0.039537443	0.081443916	-0.25973758	0.09192783	-0.064205069	-0.81124036	0.059210236	0.10806597	-0.25288598	0.11697389	0.031607197	-0.79691662	0.091472134	0.015615168	-0.31409468	0.030343073	-0.024273114	-0.87916175	0.035781704	0.057635532	-0.35739124	0.49848967	-0.099536952	-0.6351267	0.48126633	0.16579365	-0.37178915	0.48903433	0.025299329	-0.65425196	0.47519113	0.038320033	-0.55641797	0.86805281	-0.14947326	-0.61278375	0.88898376	0.22248711	-0.49124654	0.95694831	-0.084234471	-0.50351615	0.96803315	0.15489565	-0.66399083	1.0153342	0.019871496	-0.49426152	1.409851	-0.14141424	-0.51591859	1.423827	0.18747353	-0.57005472	1.4685947	0.02171557	-0.65386984	1.0789277	-0.19811441	-0.62200402	1.0634133	0.28290642	-0.53842167	0.84367654	-0.23600722	-0.37820517	0.92616619	0.25499346
128	0.508	-0.099371349	0.1119142	-0.0086443096	-0.66471975	0.039403397	0.081449256	-0.24493658	0.091869791	-0.063956363	-0.81114535	0.059287662	0.10791193	-0.23887763	0.11727735	0.031923344	-0.79664693	0.091522549	0.015506566	-0.29816895	0.029226895	-0.024112908	-0.87912399	0.036032523	0.057432225	-0.35134192	0.49593102	-0.1000458	-0.63223928	0.48034171	0.16593353	-0.36607588	0.48592695	0.024930401	-0.65140052	0.4744678	0.038321451	-0.54968445	0.86603867	-0.14904055	-0.60678063	0.88765888	0.22262009	-0.48451819	0.95521176	-0.084041359	-0.4970182	0.96669022	0.15511288	-0.65754846	1.013183	0.019814513	-0.48855355	1.4081391	-0.14155996	-0.51003557	1.422268	0.18735551	-0.56430163	1.4669367	0.021583503	-0.64773987	1.0773132	-0.19869592	-0.61536213	1.0616017	0.28295998	-0.53356937	0.84183431	-0.23684725	-0.37123894	0.92508402	0.25451801
129	0.512	-0.085512673	0.11458882	-0.0075315974	-0.66468762	0.039299221	0.081456435	-0.23055256	0.091925919	-0.063847981	-0.81084562	0.059183691	0.10803923	-0.22526756	0.11756842	0.032116595	-0.79639582	0.091599882	0.015384572	-0.28270666	0.028266155	-0.02414744	-0.87906509	0.036356022	0.057244427	-0.34531059	0.49339255	-0.10045993	-0.62917	0.47950532	0.16611451	-0.36033138	0.48286127	0.024639678	-0.64846178	0.47371359	0.038320972	-0.54279453	0.8639912	-0.14859726	-0.60070191	0.88624001	0.22271015	-0.47774881	0.95344929	-0.083891238	-0.49046822	0.96528867	0.15530451	-0.65093392	1.01107	0.019823265	-0.48282673	1.4063721	-0.14170749	-0.50413455	1.4206564	0.18722863	-0.5585293	1.4652569	0.021440551	-0.64157832	1.0756121	-0.19922209	-0.60870406	1.0597473	0.28298589	-0.52863881	0.83992833	-0.23767082	-0.36429892	0.92389192	0.25404426
130	0.516	-0.072097202	0.11711586	-0.0065591276	-0.66464699	0.039206644	0.081462696	-0.21658777	0.092051071	-0.06386089	-0.8104098	0.058953511	0.10830537	-0.21208687	0.11779853	0.032163733	-0.79616297	0.091712996	0.01523164	-0.26773774	0.027443217	-0.02443509	-0.87900198	0.036762331	0.05706174	-0.33930306	0.49088008	-0.10079461	-0.62598892	0.4786752	0.16628104	-0.35460017	0.47983022	0.024417024	-0.64534026	0.47292178	0.038317211	-0.53581357	0.8619074	-0.14818664	-0.59455064	0.88472273	0.22275982	-0.47096086	0.95166536	-0.083785562	-0.48385507	0.9638175	0.15546202	-0.64422657	1.008988	0.019891684	-0.47708831	1.4045588	-0.14186655	-0.4982181	1.418995	0.18709455	-0.55275977	1.463528	0.021288133	-0.63561387	1.0738575	-0.19956181	-0.60203361	1.0578526	0.28298492	-0.52367482	0.83795333	-0.23849489	-0.35739575	0.92259536	0.25356869
